#!OML:ASF F:\VICON\USERDATA\INSTALL\Justin_Nancy\Justin_Nancy.ASF
:FULLY-SPECIFIED
:DEGREES
140
root 0.683974 17.7059 -15.7523 4.56547 -2.67336 -0.60423
lowerback 4.88155 -0.174183 -0.466057
upperback -0.941954 -0.154565 2.97026
thorax -3.70326 -0.0339723 3.34697
lowerneck -14.6092 -4.05172 -10.8255
upperneck 20.7237 -4.32272 5.73579
head 9.30769 -2.26287 3.2421
rclavicle 8.29926e-015 -1.59028e-014
rhumerus -34.3517 -8.03027 -79.3912
rradius 35.0491
rwrist 3.49804
rhand -11.8869 13.0095
rfingers 7.12502
rthumb 14.1659 -16.4875
lclavicle 8.29926e-015 -1.59028e-014
lhumerus -35.6743 12.8503 83.3934
lradius 31.5523
lwrist -3.71445
lhand -20.67 18.1265
lfingers 7.12502
lthumb 5.69292 48.03
rfemur -10.9715 4.71684 19.317
rtibia 23.4184
rfoot -12.0892 -7.60274
rtoes 7.26158
lfemur -12.1299 -3.43514 -17.1553
ltibia 25.1443
lfoot -13.8981 8.22046
ltoes -1.96906
141
root 0.680331 17.7043 -15.7546 4.59805 -2.60252 -0.628948
lowerback 4.87888 -0.209321 -0.490718
upperback -0.92644 -0.20187 3.01369
thorax -3.68264 -0.0568649 3.40973
lowerneck -14.7234 -4.06423 -10.8267
upperneck 20.7886 -4.31794 5.69012
head 9.35036 -2.26482 3.22655
rclavicle 1.02374e-014 -4.29375e-014
rhumerus -34.2476 -8.02099 -79.3768
rradius 35.0314
rwrist 3.53393
rhand -11.6499 12.9452
rfingers 7.12502
rthumb 14.3943 -16.5357
lclavicle 1.02374e-014 -4.29375e-014
lhumerus -35.6485 12.8462 83.4361
lradius 31.5537
lwrist -3.73383
lhand -20.7035 18.3344
lfingers 7.12502
lthumb 5.66067 48.2388
rfemur -10.9963 4.78287 19.3624
rtibia 23.3801
rfoot -12.0127 -7.71164
rtoes 7.28463
lfemur -12.2097 -3.45091 -17.0973
ltibia 25.1589
lfoot -13.8526 8.1692
ltoes -2.07556
142
root 0.679042 17.7048 -15.7539 4.56998 -2.59126 -0.674127
lowerback 4.94513 -0.211716 -0.426444
upperback -0.922766 -0.200349 3.01319
thorax -3.71649 -0.0571911 3.37342
lowerneck -14.6782 -4.06272 -10.7978
upperneck 20.7824 -4.32549 5.67909
head 9.33946 -2.26783 3.21728
rclavicle 5.81445e-015 7.95139e-015
rhumerus -34.2759 -8.01236 -79.3998
rradius 35.0502
rwrist 3.46057
rhand -11.7115 13.2069
rfingers 7.12502
rthumb 14.335 -16.2782
lclavicle 5.81445e-015 7.95139e-015
lhumerus -35.6971 12.8045 83.4304
lradius 31.6323
lwrist -3.73371
lhand -20.7769 18.6713
lfingers 7.12502
lthumb 5.58978 48.5776
rfemur -10.952 4.79201 19.4292
rtibia 23.3611
rfoot -11.9408 -7.74834
rtoes 7.09621
lfemur -12.1675 -3.47764 -17.043
ltibia 25.1617
lfoot -13.8375 8.15902
ltoes -2.03844
143
root 0.67828 17.7062 -15.7556 4.50322 -2.67033 -0.680881
lowerback 5.10491 -0.164289 -0.421361
upperback -0.912778 -0.135166 3.00689
thorax -3.80039 -0.0241535 3.36024
lowerneck -14.7208 -4.08438 -10.8485
upperneck 20.8274 -4.35461 5.74296
head 9.3684 -2.27857 3.24449
rclavicle -3.27995e-015 1.59028e-015
rhumerus -34.3132 -8.02853 -79.3924
rradius 35.1319
rwrist 3.46137
rhand -11.7906 13.4493
rfingers 7.12502
rthumb 14.2588 -16.0411
lclavicle -3.27995e-015 1.59028e-015
lhumerus -35.6762 12.7817 83.4559
lradius 31.6443
lwrist -3.76782
lhand -20.8592 18.8176
lfingers 7.12502
lthumb 5.51029 48.726
rfemur -10.8949 4.80362 19.4368
rtibia 23.3604
rfoot -11.9425 -7.65939
rtoes 7.00802
lfemur -12.0878 -3.40084 -17.0496
ltibia 25.1645
lfoot -13.7874 8.14849
ltoes -2.04406
144
root 0.677596 17.7027 -15.7514 4.4135 -2.80649 -0.736544
lowerback 5.1484 -0.108562 -0.33714
upperback -0.850072 -0.0571124 2.98331
thorax -3.76471 0.0116846 3.28131
lowerneck -14.8667 -4.11321 -10.7818
upperneck 20.9168 -4.40356 5.76797
head 9.42977 -2.29245 3.23552
rclavicle 6.5102e-015 -7.95139e-016
rhumerus -34.2774 -8.11507 -79.4391
rradius 35.1861
rwrist 3.55355
rhand -11.8626 13.3976
rfingers 7.12502
rthumb 14.1894 -16.0978
lclavicle 6.5102e-015 -7.95139e-016
lhumerus -35.5941 12.7333 83.4363
lradius 31.5981
lwrist -3.7802
lhand -20.7499 18.9085
lfingers 7.12502
lthumb 5.61587 48.8141
rfemur -10.8109 4.84344 19.4951
rtibia 23.385
rfoot -11.9934 -7.59362
rtoes 6.92905
lfemur -11.951 -3.33567 -17.0059
ltibia 25.1565
lfoot -13.8117 8.27847
ltoes -2.36428
145
root 0.6757 17.6993 -15.7491 4.44421 -2.863 -0.742646
lowerback 5.07962 -0.0868563 -0.298315
upperback -0.858877 -0.0278987 2.94049
thorax -3.73667 0.0247169 3.21183
lowerneck -14.7599 -4.10376 -10.6173
upperneck 20.8565 -4.42928 5.71458
head 9.38531 -2.29793 3.1864
rclavicle 3.47873e-015 -2.38542e-014
rhumerus -34.3808 -8.16539 -79.5116
rradius 35.3135
rwrist 3.53754
rhand -11.915 12.9605
rfingers 7.12502
rthumb 14.1389 -16.5384
lclavicle 3.47873e-015 -2.38542e-014
lhumerus -35.6222 12.6167 83.4116
lradius 31.6214
lwrist -3.73193
lhand -20.9092 19.1322
lfingers 7.12502
lthumb 5.46204 49.0418
rfemur -10.8515 4.89748 19.4936
rtibia 23.4202
rfoot -12.0217 -7.56019
rtoes 7.20943
lfemur -11.9691 -3.34823 -16.9931
ltibia 25.1564
lfoot -13.8169 8.33888
ltoes -2.52468
